{
	"asset":{
		"generator":"Khronos glTF Blender I/O v4.2.57",
		"version":"2.0"
	},
	"scene":0,
	"scenes":[
		{
			"name":"Scene",
			"nodes":[
				0,
				1,
				2,
				3
			]
		}
	],
	"nodes":[
		{
			"mesh":0,
			"name":"\u7acb\u65b9\u4f53+\u6b63\u516b\u9762\u4f53",
			"scale":[
				2,
				2,
				2
			]
		},
		{
			"mesh":1,
			"name":"\u83f1\u5f62\u5341\u4e8c\u9762\u4f53",
			"scale":[
				2,
				2,
				2
			]
		},
		{
			"mesh":2,
			"name":"\u7acb\u65b9\u4f53+\u6b63\u516b\u9762\u4f53.frame",
			"scale":[
				2,
				2,
				2
			]
		},
		{
			"mesh":3,
			"name":"\u83f1\u5f62\u5341\u4e8c\u9762\u4f53.frame",
			"scale":[
				2,
				2,
				2
			]
		}
	],
	"meshes":[
		{
			"name":"Cube",
			"primitives":[
				{
					"attributes":{
						"POSITION":0,
						"NORMAL":1,
						"TEXCOORD_0":2
					},
					"indices":3
				}
			]
		},
		{
			"name":"Cube.003",
			"primitives":[
				{
					"attributes":{
						"POSITION":4,
						"NORMAL":5,
						"TEXCOORD_0":6
					},
					"indices":7
				}
			]
		},
		{
			"name":"Cube.002",
			"primitives":[
				{
					"attributes":{
						"POSITION":8,
						"NORMAL":9,
						"TEXCOORD_0":10
					},
					"indices":11
				}
			]
		},
		{
			"name":"Cube.004",
			"primitives":[
				{
					"attributes":{
						"POSITION":12,
						"NORMAL":13,
						"TEXCOORD_0":14
					},
					"indices":15
				}
			]
		}
	],
	"accessors":[
		{
			"bufferView":0,
			"componentType":5126,
			"count":48,
			"max":[
				1,
				1,
				1
			],
			"min":[
				-1,
				-1,
				-1
			],
			"type":"VEC3"
		},
		{
			"bufferView":1,
			"componentType":5126,
			"count":48,
			"type":"VEC3"
		},
		{
			"bufferView":2,
			"componentType":5126,
			"count":48,
			"type":"VEC2"
		},
		{
			"bufferView":3,
			"componentType":5123,
			"count":60,
			"type":"SCALAR"
		},
		{
			"bufferView":4,
			"componentType":5126,
			"count":48,
			"max":[
				1,
				1,
				1
			],
			"min":[
				-1,
				-1,
				-1
			],
			"type":"VEC3"
		},
		{
			"bufferView":5,
			"componentType":5126,
			"count":48,
			"type":"VEC3"
		},
		{
			"bufferView":6,
			"componentType":5126,
			"count":48,
			"type":"VEC2"
		},
		{
			"bufferView":7,
			"componentType":5123,
			"count":72,
			"type":"SCALAR"
		},
		{
			"bufferView":8,
			"componentType":5126,
			"count":384,
			"max":[
				1.037500023841858,
				1.037500023841858,
				1.037500023841858
			],
			"min":[
				-1.037500023841858,
				-1.037500023841858,
				-1.037500023841858
			],
			"type":"VEC3"
		},
		{
			"bufferView":9,
			"componentType":5126,
			"count":384,
			"type":"VEC3"
		},
		{
			"bufferView":10,
			"componentType":5126,
			"count":384,
			"type":"VEC2"
		},
		{
			"bufferView":11,
			"componentType":5123,
			"count":576,
			"type":"SCALAR"
		},
		{
			"bufferView":12,
			"componentType":5126,
			"count":384,
			"max":[
				1.037500023841858,
				1.037500023841858,
				1.037500023841858
			],
			"min":[
				-1.037500023841858,
				-1.037500023841858,
				-1.037500023841858
			],
			"type":"VEC3"
		},
		{
			"bufferView":13,
			"componentType":5126,
			"count":384,
			"type":"VEC3"
		},
		{
			"bufferView":14,
			"componentType":5126,
			"count":384,
			"type":"VEC2"
		},
		{
			"bufferView":15,
			"componentType":5123,
			"count":576,
			"type":"SCALAR"
		}
	],
	"bufferViews":[
		{
			"buffer":0,
			"byteLength":576,
			"byteOffset":0,
			"target":34962
		},
		{
			"buffer":0,
			"byteLength":576,
			"byteOffset":576,
			"target":34962
		},
		{
			"buffer":0,
			"byteLength":384,
			"byteOffset":1152,
			"target":34962
		},
		{
			"buffer":0,
			"byteLength":120,
			"byteOffset":1536,
			"target":34963
		},
		{
			"buffer":0,
			"byteLength":576,
			"byteOffset":1656,
			"target":34962
		},
		{
			"buffer":0,
			"byteLength":576,
			"byteOffset":2232,
			"target":34962
		},
		{
			"buffer":0,
			"byteLength":384,
			"byteOffset":2808,
			"target":34962
		},
		{
			"buffer":0,
			"byteLength":144,
			"byteOffset":3192,
			"target":34963
		},
		{
			"buffer":0,
			"byteLength":4608,
			"byteOffset":3336,
			"target":34962
		},
		{
			"buffer":0,
			"byteLength":4608,
			"byteOffset":7944,
			"target":34962
		},
		{
			"buffer":0,
			"byteLength":3072,
			"byteOffset":12552,
			"target":34962
		},
		{
			"buffer":0,
			"byteLength":1152,
			"byteOffset":15624,
			"target":34963
		},
		{
			"buffer":0,
			"byteLength":4608,
			"byteOffset":16776,
			"target":34962
		},
		{
			"buffer":0,
			"byteLength":4608,
			"byteOffset":21384,
			"target":34962
		},
		{
			"buffer":0,
			"byteLength":3072,
			"byteOffset":25992,
			"target":34962
		},
		{
			"buffer":0,
			"byteLength":1152,
			"byteOffset":29064,
			"target":34963
		}
	],
	"buffers":[
		{
			"byteLength":30216,
			"uri":"%E7%AB%8B%E4%BD%93.bin"
		}
	]
}
